<?xml version="1.0" encoding="UTF-8"?>
<svg id="Laag_1" xmlns="http://www.w3.org/2000/svg" version="1.1" viewBox="0 0 776.6 199.7">
  <!-- Generator: Adobe Illustrator 30.4.0, SVG Export Plug-In . SVG Version: 2.1.4 Build 226)  -->
  <defs>
    <style>
      .st0 {
        fill: #fd8144;
      }

      .st1 {
        fill: #452846;
      }
    </style>
  </defs>
  <g>
    <path class="st1" d="M350.6,136.3v.7c0,2.1-1.7,3.3-4.2,3.3h-35c-2.6,0-4.2-1.2-4.2-3.3v-.7c0-5.1,6.8-7.2,6.3-15.2l-1.7-31.3c-.9-17.3-4.2-23.8-12.1-23.8s-11.4,6.8-11.4,17v38.1c0,8,7.7,10.1,7.7,15.2v.7c0,2.1-1.6,3.3-4.2,3.3h-37.8c-2.6,0-4.2-1.2-4.2-3.3v-.7c0-5.1,7.7-7.2,7.7-15.2v-34.4c0-8.4-9.3-9.4-9.3-14.5v-.5c0-2.1,1.7-3.1,4.2-4.4l24.5-12.1c4.4-2.3,6.6.7,6.6,4.2v8.2c4.7-8.4,13.5-13.1,25-13.1s31.3,8.6,33.4,36.4l2.3,30.2c.5,8,6.3,10.1,6.3,15.2Z"/>
    <path class="st1" d="M435.2,115c-.3,9.6-12.6,26.9-35.5,26.9s-43.2-17.7-43.2-44.2,20.1-43.2,43-43.2,33.4,12.9,33.4,24-2.8,8.7-6.8,10.8l-34.8,19.6c4.5,7.2,11.4,11.4,19.9,11.4s14.3-3.5,17.5-7.7c2.4-2.4,6.6-1.4,6.5,2.4ZM384.7,81.4c0,6.8.9,13.1,2.6,18.4l16.3-9.8c2.8-1.9,4.5-5.2,4.5-8.9,0-5.6-2.8-18-11.7-18s-11.7,8.2-11.7,18.4Z"/>
    <path class="st1" d="M441.5,98c0-27.3,20.6-43.4,44.4-43.5,20.5-.2,37.2,10.3,37.2,25.9s-3.3,10.5-12.8,10.1c-17.8-1-16.3-27.6-29.2-27.4-7.3.2-12.2,8.9-12.2,19.6,0,22.7,11.2,37.8,28.5,37.8s15.7-5.2,19.4-10.1c2.3-2.8,6.6-1.9,6.6,1.9-.5,15.2-12.6,29.7-36.5,29.7s-45.5-21-45.5-43.9Z"/>
    <path class="st1" d="M539.2,109.6v-41.4h-6.6c-2.3,0-4-1.7-4-4v-3.8c0-2.4,1.6-4,4-4h3.3c10.7,0,19.1-7,21.3-17.7.5-2.8,2.4-4.5,4.7-4.5h4c2.8,0,4.7,1.7,4.7,4.5v17.7h18c2.3,0,4,1.7,4,4v3.8c0,2.3-1.7,4-4,4h-18v42c0,5.9,3.5,9.4,7.9,9.4,6.8,0,9.6-3.3,11.5-6.5,2.4-3.1,6.6-2.1,6.6,1.2,0,13.5-10,27.6-29,27.6s-28.5-11.2-28.5-32.3Z"/>
    <path class="st1" d="M693.7,135.5c0,4.5-10.1,5.8-19.8,5.8s-15.6-2.1-17-8.4c-3.7,5.1-10.7,9.1-22.2,9.1-18.7,0-33-8.6-33-26.6s14.9-26.7,31.5-26.7,13.3,1.7,17.7,4.4v-.5c-2.1-20.6-3.3-29.5-12.4-29.5s-7.2,23.4-22.7,23.4-12.2-4.5-12.2-11.4c0-14.3,17.1-20.5,35-20.5s39.7,13.6,42.5,35.3l3.8,31.3c1.6,12.4,8.9,9.4,8.9,14.3ZM653.5,120.4l-.7-8c-1.2-10.5-5.8-14.5-10.8-14.5s-8.9,4.7-8.9,11.9c0,12.4,4.2,23.3,11.4,23.3s9.1-6.6,9.1-12.6Z"/>
    <path class="st1" d="M773.1,71.8c0,8.7-3.3,16.4-13.5,16.4-15.9,0-8.7-16.4-17.5-16.4s-6.5,9.1-6.5,16.8v32.5c0,8,9.3,10.1,9.3,15v.7c0,2.1-1.7,3.3-4.2,3.3h-37.6c-2.4,0-4.2-1.2-4.2-3.3v-.7c0-4.9,7-7,7-15v-34.8c0-8.2-8.4-8.9-8.4-14v-.5c0-2.1,1.4-3.7,4-5.1l24.7-11.5c4.5-2.1,6.3.3,6.3,3.8v12.8c3.8-11.2,12.1-17.3,24.1-17.3s16.4,7.5,16.4,17.3Z"/>
  </g>
  <g>
    <path class="st0" d="M250.3,188.8v-35.2h4.4v35.2h-4.4Z"/>
    <path class="st0" d="M275.9,189.3c-3.2,0-5.8-.2-7.8-.5s-3.6-1-4.6-2.2c-1-1.1-1.5-2.8-1.5-5.2s.5-4.2,1.4-5.3c.9-1.1,2.4-1.9,4.5-2.2s4.7-.5,8-.5,4.9,0,6.8.2c1.8.1,3.4.3,4.9.6,0-2-.2-3.6-.4-4.8-.2-1.2-.7-2-1.4-2.6-.7-.6-1.7-.9-2.9-1.1-1.3-.2-3-.2-5.1-.2s-4.4,0-5.7.2c-1.4.1-2.4.3-3,.6s-1,.7-1.2,1.2c-.2.5-.2,1.2-.2,2h-4.4c0-1.6.2-3,.7-4,.5-1,1.2-1.8,2.3-2.3,1.1-.5,2.6-.9,4.5-1.1s4.3-.3,7.1-.3,5.6.2,7.5.6,3.3,1.1,4.3,2.1,1.6,2.5,2,4.3.5,4.2.5,7.1v12.7h-4.4v-1.8c-.5.6-1.2,1-2.2,1.3-.9.3-2.1.6-3.7.7-1.5.2-3.5.2-5.8.2ZM275.9,185.7c2.6,0,4.7,0,6.3,0,1.6,0,2.7-.2,3.5-.5.8-.3,1.3-.7,1.5-1.3.2-.6.4-1.5.4-2.6v-4.1h-11.6c-2.1-.2-3.7-.1-5,0-1.3,0-2.2.3-2.9.6-.7.3-1.1.7-1.3,1.3-.2.6-.3,1.4-.3,2.4s.1,1.8.3,2.4c.2.6.7,1,1.3,1.3.7.3,1.6.5,2.9.5,1.3,0,2.9.1,5,.1Z"/>
    <path class="st0" d="M311.7,189.3c-3.2,0-5.8-.2-7.8-.5s-3.6-1-4.6-2.2c-1-1.1-1.5-2.8-1.5-5.2s.5-4.2,1.4-5.3c.9-1.1,2.4-1.9,4.5-2.2s4.7-.5,8-.5,4.9,0,6.8.2c1.8.1,3.4.3,4.9.6,0-2-.2-3.6-.4-4.8-.2-1.2-.7-2-1.4-2.6-.7-.6-1.7-.9-2.9-1.1-1.3-.2-3-.2-5.1-.2s-4.4,0-5.7.2c-1.4.1-2.4.3-3,.6s-1,.7-1.2,1.2c-.2.5-.2,1.2-.2,2h-4.4c0-1.6.2-3,.7-4,.5-1,1.2-1.8,2.3-2.3,1.1-.5,2.6-.9,4.5-1.1s4.3-.3,7.1-.3,5.6.2,7.5.6,3.3,1.1,4.3,2.1,1.6,2.5,2,4.3.5,4.2.5,7.1v12.7h-4.4v-1.8c-.5.6-1.2,1-2.2,1.3-.9.3-2.1.6-3.7.7-1.5.2-3.5.2-5.8.2ZM311.7,185.7c2.6,0,4.7,0,6.3,0,1.6,0,2.7-.2,3.5-.5.8-.3,1.3-.7,1.5-1.3.2-.6.4-1.5.4-2.6v-4.1h-11.6c-2.1-.2-3.7-.1-5,0-1.3,0-2.2.3-2.9.6-.7.3-1.1.7-1.3,1.3-.2.6-.3,1.4-.3,2.4s.1,1.8.3,2.4c.2.6.7,1,1.3,1.3.7.3,1.6.5,2.9.5,1.3,0,2.9.1,5,.1Z"/>
    <path class="st0" d="M345.7,188.8c-2.7,0-4.8-.3-6.5-.8-1.6-.5-2.8-1.5-3.5-2.9s-1.1-3.3-1.1-5.8v-24.1h4.4v7.2h16.2v3.6h-16.2v13.2c0,1.7.2,3,.5,3.8.3.8.9,1.4,1.9,1.7,1,.3,2.4.4,4.3.4s3,0,4-.2c1-.1,1.7-.4,2.1-.9.5-.5.7-1.2.9-2.3.1-1.1.2-2.6.2-4.5h3.9c0,2.5-.2,4.6-.5,6.1-.3,1.5-.9,2.7-1.7,3.5-.8.8-1.9,1.3-3.4,1.6-1.4.3-3.3.4-5.6.4Z"/>
    <path class="st0" d="M372.8,197.6v-3.7h3.3c1.5,0,2.5-.3,3.2-.8.6-.6,1-1.8,1-3.7v-26.9h4.4v26.9c0,2.8-.6,4.8-1.9,6.2-1.3,1.4-3.5,2.1-6.6,2.1h-3.3ZM380.2,158v-4.4h4.4v4.4h-4.4Z"/>
    <path class="st0" d="M422.2,181c0,2-.3,3.5-.9,4.7-.6,1.1-1.5,2-2.7,2.5s-2.7.9-4.6,1c-1.9.1-4.1.2-6.7.2s-5.5-.1-7.5-.4-3.7-.9-5-1.8c-1.3-.9-2.2-2.3-2.8-4.2-.6-1.8-.9-4.3-.9-7.4s.3-5.4.8-7.2,1.5-3.2,2.7-4.1c1.3-.9,2.9-1.5,4.9-1.8,2-.3,4.5-.5,7.5-.5s6.2.2,8.4.7,3.9,1.4,5,2.7,1.6,3.3,1.6,5.8v5.7h-26.5c0,2,.2,3.5.4,4.7.3,1.2.8,2.1,1.6,2.7.8.6,1.9,1,3.5,1.2,1.6.2,3.6.3,6.2.3s4.2,0,5.6-.1c1.4,0,2.5-.3,3.3-.6.7-.3,1.2-.8,1.5-1.4.3-.6.4-1.5.4-2.5h4.1ZM407.2,165.6c-2.5,0-4.5,0-6,.3-1.5.2-2.7.5-3.5,1.1-.8.5-1.3,1.3-1.6,2.3s-.4,2.4-.4,4.1h22.3v-2.2c0-1.1-.1-2-.4-2.7s-.7-1.3-1.5-1.7-1.8-.7-3.2-.9c-1.4-.2-3.3-.3-5.7-.3Z"/>
    <path class="st1" d="M441.2,158v-4.4h4.4v4.4h-4.4ZM441.2,188.8v-24.9h4.4v24.9h-4.4Z"/>
    <path class="st1" d="M451.6,188.8v-26.4h4.4v3.3c.7-.9,1.4-1.6,2.4-2.2.9-.6,2.1-1,3.5-1.3,1.4-.3,3.3-.4,5.5-.4s5,.4,6.8,1.1c1.7.7,3,2,3.8,3.9.7-1.2,1.7-2.1,2.7-2.9,1.1-.7,2.4-1.3,4-1.6,1.6-.3,3.6-.5,5.9-.5s5,.4,6.8,1.1c1.7.8,3,2,3.8,3.9.8,1.8,1.2,4.3,1.2,7.5v14.7h-4.4v-14.7c0-2.4-.3-4.3-.8-5.5-.5-1.3-1.3-2.1-2.5-2.6-1.2-.5-2.7-.7-4.7-.7-3.9,0-6.7.6-8.3,1.7-1.7,1.1-2.5,3-2.5,5.6h0c0,.5,0,.9,0,1.5v14.7h-4.4v-14.7c0-2.4-.3-4.3-.8-5.5-.5-1.3-1.3-2.1-2.5-2.6s-2.7-.7-4.7-.7c-3.9,0-6.7.6-8.3,1.7-1.7,1.1-2.5,3-2.5,5.6v16.1h-4.4Z"/>
    <path class="st1" d="M508.3,197.6v-35.2h4.4v3c1.1-1.5,2.6-2.4,4.6-2.9,1.9-.4,4.3-.6,7.2-.6s5.5.2,7.5.5,3.7.9,5,1.8c1.3.9,2.2,2.3,2.8,4.1.6,1.8.9,4.2.9,7.2s-.3,5.6-.9,7.4c-.6,1.8-1.5,3.2-2.8,4.2-1.3.9-2.9,1.5-5,1.8s-4.6.4-7.5.4-5.2-.2-7.2-.6c-1.9-.4-3.5-1.4-4.6-2.9v11.8h-4.4ZM536.2,175.5c0-2.2-.1-3.9-.3-5.2-.2-1.3-.7-2.3-1.5-3-.7-.7-1.9-1.1-3.5-1.3-1.6-.2-3.7-.3-6.5-.3s-4.5.1-6,.3c-1.5.2-2.7.7-3.6,1.3-.8.7-1.4,1.7-1.7,3-.3,1.3-.5,3.1-.5,5.2s.2,4.1.5,5.4c.3,1.4.9,2.4,1.7,3.1.8.7,2,1.1,3.6,1.4,1.5.2,3.6.3,6,.3s4.9-.1,6.5-.3c1.6-.2,2.7-.7,3.5-1.4.7-.7,1.2-1.7,1.5-3.1.2-1.4.3-3.2.3-5.4Z"/>
    <path class="st1" d="M559.6,189.3c-3.2,0-5.8-.2-7.8-.5s-3.6-1-4.6-2.2c-1-1.1-1.5-2.8-1.5-5.2s.5-4.2,1.4-5.3,2.4-1.9,4.5-2.2c2-.3,4.7-.5,8-.5s4.9,0,6.8.2c1.8.1,3.4.3,4.9.6,0-2-.2-3.6-.4-4.8-.2-1.2-.7-2-1.4-2.6-.7-.6-1.7-.9-2.9-1.1-1.3-.2-3-.2-5.1-.2s-4.4,0-5.7.2c-1.4.1-2.4.3-3,.6-.6.3-1,.7-1.2,1.2-.2.5-.2,1.2-.2,2h-4.4c0-1.6.2-3,.7-4,.5-1,1.2-1.8,2.3-2.3,1.1-.5,2.6-.9,4.5-1.1s4.3-.3,7.1-.3,5.6.2,7.5.6,3.3,1.1,4.3,2.1,1.6,2.5,2,4.3.5,4.2.5,7.1v12.7h-4.4v-1.8c-.5.6-1.2,1-2.2,1.3-.9.3-2.1.6-3.7.7-1.5.2-3.5.2-5.8.2ZM559.6,185.7c2.6,0,4.7,0,6.3,0,1.6,0,2.7-.2,3.5-.5.8-.3,1.3-.7,1.5-1.3.2-.6.4-1.5.4-2.6v-4.1h-11.6c-2.1-.2-3.7-.1-5,0-1.3,0-2.2.3-2.9.6-.7.3-1.1.7-1.3,1.3-.2.6-.3,1.4-.3,2.4s.1,1.8.3,2.4c.2.6.7,1,1.3,1.3.7.3,1.6.5,2.9.5,1.3,0,2.9.1,5,.1Z"/>
    <path class="st1" d="M596.9,189.3c-2.9,0-5.5-.1-7.5-.4-2.1-.3-3.7-.9-5-1.8-1.3-.9-2.2-2.3-2.8-4.2-.6-1.8-.9-4.3-.9-7.4s.3-5.4.9-7.2c.6-1.8,1.5-3.2,2.8-4.1,1.3-.9,2.9-1.5,5-1.8,2.1-.3,4.6-.5,7.5-.5s6.4.2,8.7.6c2.3.4,4,1.2,5.1,2.5,1.1,1.3,1.6,3.2,1.6,5.7h-4.2c0-1.5-.3-2.6-.9-3.3-.6-.7-1.7-1.2-3.3-1.5-1.6-.2-3.9-.4-7-.4s-4.9.1-6.5.3-2.8.7-3.5,1.3c-.7.7-1.2,1.7-1.5,3-.2,1.3-.3,3.1-.3,5.2s.1,4.1.3,5.4c.2,1.4.7,2.4,1.5,3.1.7.7,1.9,1.1,3.5,1.4s3.7.3,6.5.3,4.2,0,5.7-.2,2.6-.4,3.4-.8c.8-.4,1.4-1,1.7-1.7.3-.7.5-1.7.5-3h4.2c0,2-.3,3.7-.9,4.9-.6,1.2-1.5,2.2-2.8,2.8-1.3.6-2.9,1-4.8,1.3-1.9.2-4.3.3-6.9.3Z"/>
    <path class="st1" d="M629.7,188.8c-2.7,0-4.8-.3-6.5-.8-1.6-.5-2.8-1.5-3.5-2.9s-1.1-3.3-1.1-5.8v-24.1h4.4v7.2h16.2v3.6h-16.2v13.2c0,1.7.2,3,.5,3.8.3.8.9,1.4,1.9,1.7,1,.3,2.4.4,4.3.4s3,0,4-.2c1-.1,1.7-.4,2.1-.9.5-.5.7-1.2.9-2.3s.2-2.6.2-4.5h3.9c0,2.5-.2,4.6-.5,6.1-.3,1.5-.9,2.7-1.7,3.5s-1.9,1.3-3.4,1.6c-1.4.3-3.3.4-5.6.4Z"/>
    <path class="st0" d="M660.5,188.8v-3.7l22.3-19.3h-20.8v-3.4h26.4v3.7l-22,19.3h22v3.4h-27.9Z"/>
    <path class="st0" d="M694.3,158v-4.4h4.4v4.4h-4.4ZM694.3,188.8v-24.9h4.4v24.9h-4.4Z"/>
    <path class="st0" d="M734.7,181c0,2-.3,3.5-.9,4.7-.6,1.1-1.5,2-2.7,2.5s-2.7.9-4.6,1c-1.9.1-4.1.2-6.7.2s-5.5-.1-7.5-.4-3.7-.9-5-1.8c-1.3-.9-2.2-2.3-2.8-4.2-.6-1.8-.9-4.3-.9-7.4s.3-5.4.8-7.2,1.5-3.2,2.7-4.1c1.3-.9,2.9-1.5,4.9-1.8,2-.3,4.5-.5,7.5-.5s6.2.2,8.4.7c2.2.5,3.9,1.4,5,2.7,1.1,1.3,1.6,3.3,1.6,5.8v5.7h-26.5c0,2,.2,3.5.4,4.7.3,1.2.8,2.1,1.6,2.7.8.6,1.9,1,3.5,1.2,1.5.2,3.6.3,6.2.3s4.2,0,5.6-.1,2.5-.3,3.3-.6c.7-.3,1.2-.8,1.5-1.4.3-.6.4-1.5.4-2.5h4.1ZM719.8,165.6c-2.5,0-4.5,0-6,.3-1.5.2-2.7.5-3.5,1.1s-1.3,1.3-1.6,2.3c-.3,1-.4,2.4-.4,4.1h22.3v-2.2c0-1.1-.1-2-.4-2.7s-.7-1.3-1.5-1.7-1.8-.7-3.2-.9c-1.4-.2-3.3-.3-5.7-.3Z"/>
    <path class="st0" d="M740.5,188.8v-26.4h4.4v3.5c.7-.9,1.5-1.6,2.4-2.2s2.3-1,3.9-1.3,3.8-.4,6.4-.4,6.2.3,8.2,1c2,.7,3.4,1.9,4.2,3.6.8,1.7,1.3,4.2,1.3,7.3v15h-4.4v-15c0-1.8-.2-3.3-.5-4.4-.3-1.1-.8-1.9-1.6-2.5s-1.8-.9-3.1-1.1c-1.3-.2-2.9-.3-5-.3-3.1,0-5.5.3-7.2.8-1.7.5-3,1.3-3.7,2.4s-1.1,2.5-1.1,4.2v15.9h-4.4Z"/>
  </g>
  <path class="st1" d="M104.8,117.9l-10.6-17.9c-1.2-2-3.3-3.2-5.7-3.2l-20.5.3c-2.3,0-4.5,1.3-5.6,3.3l-10.1,18.2c-1.1,2-1.1,4.4,0,6.4l10.6,17.9c1.2,2,3.3,3.2,5.7,3.2l20.5-.3c2.3,0,4.5-1.3,5.6-3.3l10.1-18.2c1.1-2,1.1-4.4,0-6.4Z"/>
  <path class="st1" d="M52.5,67.6l10.6,17.9c1.2,2,3.3,3.2,5.7,3.2l20.5-.3c2.3,0,4.5-1.3,5.6-3.3l10.1-18.2c1.1-2,1.1-4.4,0-6.4l-10.6-17.9c-1.2-2-3.3-3.2-5.7-3.2l-20.5.3c-2.3,0-4.5,1.3-5.6,3.3l-10.1,18.2c-1.1,2-1.1,4.4,0,6.4Z"/>
  <path class="st1" d="M3.3,96.3l10.6,17.9c1.2,2,3.3,3.2,5.7,3.2l20.5-.3c2.3,0,4.5-1.3,5.6-3.3l10.1-18.2c1.1-2,1.1-4.4,0-6.4l-10.6-17.9c-1.2-2-3.3-3.2-5.7-3.2l-20.5.3c-2.3,0-4.5,1.3-5.6,3.3l-10.1,18.2c-1.1,2-1.1,4.4,0,6.4Z"/>
  <path class="st0" d="M224.4,87.7l-38.1-65.6c-4.3-7.4-12.3-12-20.8-11.9l-38,.3v57.8h10.3c2.3-.2,4.5,1.1,5.7,3.1l10.6,17.9c1.2,2,1.2,4.4,0,6.4l-10.1,18.2c-1.1,2-3.3,3.3-5.6,3.3h-10.9v6.6h10.7c2.4-.2,4.6,1.1,5.9,3.2l10.9,18.6c1.2,2,1.2,4.6,0,6.7l-10.5,18.9c-1.2,2.1-3.4,3.4-5.8,3.5h-11.3v15.9l37.9-.3c8.5,0,16.3-4.6,20.5-11.9l38.6-66.5c4.3-7.4,4.3-16.6,0-24Z"/>
  <g>
    <path class="st0" d="M117.3,68.4c-2.3,0-4.5,1.3-5.6,3.3l-10.1,18.2c-1.1,2-1.1,4.4,0,6.4l10.6,17.9c1.2,2,3.3,3.2,5.7,3.2h9.6v-49.2h-10.2Z"/>
    <path class="st0" d="M116.9,123.9c-2.4,0-4.6,1.3-5.8,3.5l-10.5,18.9c-1.2,2.1-1.1,4.6,0,6.7l10.9,18.6c1.2,2.1,3.5,3.3,5.9,3.3h10v-51h-10.6Z"/>
  </g>
</svg>