<?xml version="1.0" encoding="UTF-8"?>
<svg id="Laag_1" xmlns="http://www.w3.org/2000/svg" version="1.1" viewBox="0 0 500 500">
  <!-- Generator: Adobe Illustrator 30.4.0, SVG Export Plug-In . SVG Version: 2.1.4 Build 226)  -->
  <defs>
    <style>
      .st0 {
        fill: #fd8144;
      }

      .st1 {
        fill: #452846;
      }
    </style>
  </defs>
  <path class="st1" d="M229.3,286.7l-21.8-37c-2.4-4.1-6.9-6.6-11.7-6.6l-42.4.5c-4.8,0-9.2,2.7-11.5,6.9l-20.8,37.6c-2.3,4.1-2.2,9.2.2,13.3l21.8,37c2.4,4.1,6.9,6.6,11.7,6.6l42.4-.5c4.8,0,9.2-2.7,11.5-6.9l20.8-37.6c2.3-4.1,2.2-9.2-.2-13.3Z"/>
  <path class="st1" d="M121.2,182.8l21.8,37c2.4,4.1,6.9,6.6,11.7,6.6l42.4-.5c4.8,0,9.2-2.7,11.5-6.9l20.8-37.6c2.3-4.1,2.2-9.2-.2-13.3l-21.8-37c-2.4-4.1-6.9-6.6-11.7-6.6l-42.4.5c-4.8,0-9.2,2.7-11.5,6.9l-20.8,37.6c-2.3,4.1-2.2,9.2.2,13.3Z"/>
  <path class="st1" d="M19.7,242.1l21.8,37c2.4,4.1,6.9,6.6,11.7,6.6l42.4-.5c4.8,0,9.2-2.7,11.5-6.9l20.8-37.6c2.3-4.1,2.2-9.2-.2-13.3l-21.8-37c-2.4-4.1-6.9-6.6-11.7-6.6l-42.4.5c-4.8,0-9.2,2.7-11.5,6.9l-20.8,37.6c-2.3,4.1-2.2,9.2.2,13.3Z"/>
  <path class="st0" d="M476.2,224.3l-78.6-135.4c-8.9-15.3-25.3-24.7-43-24.6l-78.4.5v119.2l21.3-.3c4.8,0,9.3,2.5,11.7,6.6l21.8,37c2.4,4.1,2.5,9.1.2,13.3l-20.8,37.6c-2.3,4.2-6.7,6.8-11.5,6.9l-22.6.3v13.4l22-.3c5,0,9.6,2.5,12.1,6.8l22.6,38.4c2.5,4.2,2.6,9.5.2,13.7l-21.6,38.9c-2.4,4.3-7,7.1-11.9,7.1l-23.3.3v32.4l78.1-.5c17.5-.1,33.6-9.5,42.4-24.6l79.6-137.2c8.9-15.3,8.9-34.2,0-49.6Z"/>
  <g>
    <path class="st0" d="M255,184.4c-4.8,0-9.2,2.7-11.5,6.9l-20.8,37.6c-2.3,4.1-2.2,9.2.2,13.3l21.8,37c2.4,4.1,6.9,6.6,11.7,6.6l19.8-.3v-101.3l-21.1.3Z"/>
    <path class="st0" d="M254.2,299.1c-5,0-9.5,2.8-11.9,7.1l-21.6,38.9c-2.4,4.3-2.3,9.5.2,13.7l22.6,38.4c2.5,4.3,7.1,6.9,12.1,6.8l20.6-.3v-105l-21.9.3Z"/>
  </g>
</svg>